<svg width="32" height="32" viewBox="0 0 1000 1000" fill="none" xmlns="http://www.w3.org/2000/svg">
<path d="M720.701 478.314C713.061 459.569 704.263 443.06 695.85 427.555L680.338 472.606C705.343 537.868 670.459 581.839 617.67 598.656C512.71 632.136 436.768 583.073 399.955 543.422C334.895 473.3 332.502 410.738 361.212 352.727C373.869 327.116 409.139 297.493 439.778 293.019C444.023 292.402 452.744 291.399 457.066 291.476L477.286 291.862C484.772 292.016 487.242 281.602 480.373 278.593C480.373 278.593 480.219 278.593 480.219 278.516C435.225 259.385 361.675 279.596 324.321 308.833C235.722 378.261 247.299 503.694 299.548 591.945C305.336 601.665 312.668 609.302 317.53 617.17C316.99 617.865 316.449 618.559 316.064 619.33L272.845 709.587C269.14 717.301 276.395 724.629 284.19 720.927L374.641 677.958C374.795 677.958 374.872 677.804 375.027 677.727C387.066 685.364 403.428 698.247 411.454 702.798C480.682 742.064 564.187 743.915 626.16 721.852C718.232 688.99 770.48 600.199 720.856 478.237L720.701 478.314Z" fill="#FF8142"/>
<path d="M456.139 370.778L494.188 392.532C496.657 393.921 499.667 394.306 502.368 393.458L626.855 354.887C634.727 352.418 642.213 359.824 639.743 367.77L601.463 492.354C600.614 495.054 600.923 498.063 602.389 500.531L624.23 538.485C628.63 546.2 640.129 545.042 642.907 536.634L729.963 277.59C732.664 269.49 724.946 261.853 716.92 264.553L457.992 352.187C449.579 355.041 448.499 366.458 456.139 370.855V370.778Z" fill="#2F443F"/>
<path d="M590.813 392.918L519.965 416.601C517.649 417.372 515.797 419.069 514.794 421.306L478.366 505.083C475.279 512.257 482.534 519.508 489.711 516.423L573.448 479.857C575.686 478.854 577.384 477.003 578.156 474.689L601.618 403.872C603.856 397.161 597.45 390.758 590.736 392.995L590.813 392.918Z" fill="#FF8142"/>
</svg>
